<svg width="56" height="56" viewBox="0 0 56 56" fill="none" xmlns="http://www.w3.org/2000/svg">
<rect x="4" y="4" width="48" height="48" rx="24" fill="#D1E9FF"/>
<path d="M21 23.2C21 22.6165 21.2318 22.0569 21.6443 21.6443C22.0569 21.2318 22.6165 21 23.2 21H24.2C24.7809 20.9996 25.3381 20.7696 25.75 20.36L26.45 19.66C26.6544 19.4544 26.8975 19.2912 27.1652 19.1799C27.4329 19.0685 27.72 19.0112 28.01 19.0112C28.2999 19.0112 28.587 19.0685 28.8547 19.1799C29.1225 19.2912 29.3655 19.4544 29.57 19.66L30.27 20.36C30.682 20.77 31.24 21 31.82 21H32.82C33.4034 21 33.963 21.2318 34.3756 21.6443C34.7882 22.0569 35.02 22.6165 35.02 23.2V24.2C35.02 24.78 35.25 25.338 35.66 25.75L36.36 26.45C36.5656 26.6544 36.7287 26.8975 36.8401 27.1652C36.9514 27.4329 37.0087 27.72 37.0087 28.01C37.0087 28.2999 36.9514 28.587 36.8401 28.8547C36.7287 29.1225 36.5656 29.3655 36.36 29.57L35.66 30.27C35.2504 30.6819 35.0203 31.2391 35.02 31.82V32.82C35.02 33.4034 34.7882 33.963 34.3756 34.3756C33.963 34.7882 33.4034 35.02 32.82 35.02H31.82C31.2391 35.0203 30.6819 35.2504 30.27 35.66L29.57 36.36C29.3655 36.5656 29.1225 36.7287 28.8547 36.8401C28.587 36.9514 28.2999 37.0087 28.01 37.0087C27.72 37.0087 27.4329 36.9514 27.1652 36.8401C26.8975 36.7287 26.6544 36.5656 26.45 36.36L25.75 35.66C25.3381 35.2504 24.7809 35.0203 24.2 35.02H23.2C22.6165 35.02 22.0569 34.7882 21.6443 34.3756C21.2318 33.963 21 33.4034 21 32.82V31.82C20.9996 31.2391 20.7696 30.6819 20.36 30.27L19.66 29.57C19.4544 29.3655 19.2912 29.1225 19.1799 28.8547C19.0685 28.587 19.0112 28.2999 19.0112 28.01C19.0112 27.72 19.0685 27.4329 19.1799 27.1652C19.2912 26.8975 19.4544 26.6544 19.66 26.45L20.36 25.75C20.7696 25.3381 20.9996 24.7809 21 24.2V23.2" stroke="#1570EF" stroke-width="2" stroke-linecap="round" stroke-linejoin="round"/>
<path d="M25 28L27 30L31 26" stroke="#1570EF" stroke-width="2" stroke-linecap="round" stroke-linejoin="round"/>
<rect x="4" y="4" width="48" height="48" rx="24" stroke="#EFF8FF" stroke-width="8"/>
</svg>
