<svg width="56" height="56" viewBox="0 0 56 56" fill="none" xmlns="http://www.w3.org/2000/svg">
<rect x="4" y="4" width="48" height="48" rx="24" fill="#D1E9FF"/>
<path d="M21 23H22C22.5304 23 23.0391 22.7893 23.4142 22.4142C23.7893 22.0391 24 21.5304 24 21C24 20.7348 24.1054 20.4804 24.2929 20.2929C24.4804 20.1054 24.7348 20 25 20H31C31.2652 20 31.5196 20.1054 31.7071 20.2929C31.8946 20.4804 32 20.7348 32 21C32 21.5304 32.2107 22.0391 32.5858 22.4142C32.9609 22.7893 33.4696 23 34 23H35C35.5304 23 36.0391 23.2107 36.4142 23.5858C36.7893 23.9609 37 24.4696 37 25V34C37 34.5304 36.7893 35.0391 36.4142 35.4142C36.0391 35.7893 35.5304 36 35 36H21C20.4696 36 19.9609 35.7893 19.5858 35.4142C19.2107 35.0391 19 34.5304 19 34V25C19 24.4696 19.2107 23.9609 19.5858 23.5858C19.9609 23.2107 20.4696 23 21 23" stroke="#1570EF" stroke-width="2" stroke-linecap="round" stroke-linejoin="round"/>
<path d="M28 32C29.6569 32 31 30.6569 31 29C31 27.3431 29.6569 26 28 26C26.3431 26 25 27.3431 25 29C25 30.6569 26.3431 32 28 32Z" stroke="#1570EF" stroke-width="2" stroke-linecap="round" stroke-linejoin="round"/>
<rect x="4" y="4" width="48" height="48" rx="24" stroke="#EFF8FF" stroke-width="8"/>
</svg>
