<svg width="56" height="56" viewBox="0 0 56 56" fill="none" xmlns="http://www.w3.org/2000/svg">
<rect x="4" y="4" width="48" height="48" rx="24" fill="#D1E9FF"/>
<path d="M23 27V35C23 35.2652 22.8946 35.5196 22.7071 35.7071C22.5196 35.8946 22.2652 36 22 36H20C19.7348 36 19.4804 35.8946 19.2929 35.7071C19.1054 35.5196 19 35.2652 19 35V28C19 27.7348 19.1054 27.4804 19.2929 27.2929C19.4804 27.1054 19.7348 27 20 27H23ZM23 27C24.0609 27 25.0783 26.5786 25.8284 25.8284C26.5786 25.0783 27 24.0609 27 23V22C27 21.4696 27.2107 20.9609 27.5858 20.5858C27.9609 20.2107 28.4696 20 29 20C29.5304 20 30.0391 20.2107 30.4142 20.5858C30.7893 20.9609 31 21.4696 31 22V27H34C34.5304 27 35.0391 27.2107 35.4142 27.5858C35.7893 27.9609 36 28.4696 36 29L35 34C34.8562 34.6135 34.5834 35.1402 34.2227 35.501C33.8619 35.8617 33.4328 36.0368 33 36H26C25.2044 36 24.4413 35.6839 23.8787 35.1213C23.3161 34.5587 23 33.7956 23 33" stroke="#1570EF" stroke-width="2" stroke-linecap="round" stroke-linejoin="round"/>
<rect x="4" y="4" width="48" height="48" rx="24" stroke="#EFF8FF" stroke-width="8"/>
</svg>
