<svg width="56" height="56" viewBox="0 0 56 56" fill="none" xmlns="http://www.w3.org/2000/svg">
<rect x="4" y="4" width="48" height="48" rx="24" fill="#D1E9FF"/>
<path d="M37 19L30.5 37C30.4561 37.0957 30.3857 37.1769 30.297 37.2338C30.2084 37.2906 30.1053 37.3209 30 37.3209C29.8947 37.3209 29.7916 37.2906 29.7029 37.2338C29.6143 37.1769 29.5439 37.0957 29.5 37L26 30L19 26.5C18.9043 26.4561 18.8231 26.3857 18.7662 26.2971C18.7094 26.2084 18.6791 26.1053 18.6791 26C18.6791 25.8947 18.7094 25.7916 18.7662 25.7029C18.8231 25.6143 18.9043 25.5439 19 25.5L37 19Z" stroke="#1570EF" stroke-width="2" stroke-linecap="round" stroke-linejoin="round"/>
<rect x="4" y="4" width="48" height="48" rx="24" stroke="#EFF8FF" stroke-width="8"/>
</svg>
