<?xml version="1.0" encoding="UTF-8"?>
<svg version="1.1" xmlns="http://www.w3.org/2000/svg" width="500" height="473">
<path d="M0 0 C165 0 330 0 500 0 C500 156.09 500 312.18 500 473 C335 473 170 473 0 473 C0 316.91 0 160.82 0 0 Z " fill="#FEFEFE" transform="translate(0,0)"/>
<path d="M0 0 C66 0 132 0 200 0 C200 65.34 200 130.68 200 198 C156.11 198 112.22 198 67 198 C67 186.78 67 175.56 67 164 C99.34 164 131.68 164 165 164 C165 121.1 165 78.2 165 34 C122.43 34 79.86 34 36 34 C36 118.48 36 202.96 36 290 C24.45 290 12.9 290 1 290 C0.67 194.3 0.34 98.6 0 0 Z " fill="#25B04E" transform="translate(168,146)"/>
<path d="M0 0 C105.27 0 210.54 0 319 0 C319 10.89 319 21.78 319 33 C225.28 33 131.56 33 35 33 C35 129.36 35 225.72 35 325 C23.45 325 11.9 325 0 325 C0 217.75 0 110.5 0 0 Z " fill="#07A2E5" transform="translate(75,51)"/>
<path d="M0 0 C11.55 0 23.1 0 35 0 C35 105.27 35 210.54 35 319 C-39.91 319 -114.82 319 -192 319 C-192 307.78 -192 296.56 -192 285 C-128.64 285 -65.28 285 0 285 C0 190.95 0 96.9 0 0 Z " fill="#FDC915" transform="translate(427,117)"/>
<path d="M0 0 C11.55 0 23.1 0 35 0 C35 11.22 35 22.44 35 34 C23.45 34 11.9 34 0 34 C0 22.78 0 11.56 0 0 Z " fill="#27B04F" transform="translate(427,51)"/>
<path d="M0 0 C11.55 0 23.1 0 35 0 C35 10.89 35 21.78 35 33 C23.45 33 11.9 33 0 33 C0 22.11 0 11.22 0 0 Z " fill="#25B04E" transform="translate(75,403)"/>
</svg>
