<svg width="56" height="56" viewBox="0 0 56 56" fill="none" xmlns="http://www.w3.org/2000/svg">
<rect x="4" y="4" width="48" height="48" rx="24" fill="#D1E9FF"/>
<path d="M28 18.9999C28.132 18.9999 28.263 18.9999 28.393 18.9999C27.1083 20.1937 26.2826 21.7998 26.0593 23.5392C25.836 25.2785 26.2293 27.0412 27.1707 28.5207C28.1122 30.0002 29.5424 31.103 31.2126 31.6374C32.8828 32.1718 34.6875 32.1041 36.313 31.4459C35.6877 32.9504 34.6658 34.257 33.3562 35.2262C32.0466 36.1954 30.4984 36.791 28.8769 36.9493C27.2554 37.1077 25.6213 36.8229 24.1489 36.1253C22.6765 35.4278 21.4211 34.3436 20.5166 32.9885C19.6121 31.6334 19.0923 30.0582 19.0129 28.4309C18.9334 26.8036 19.2972 25.1852 20.0654 23.7485C20.8336 22.3117 21.9774 21.1104 23.3748 20.2727C24.7722 19.435 26.3707 18.9923 28 18.9919V18.9999Z" stroke="#1570EF" stroke-width="2" stroke-linecap="round" stroke-linejoin="round"/>
<rect x="4" y="4" width="48" height="48" rx="24" stroke="#EFF8FF" stroke-width="8"/>
</svg>
